<?xml version="1.0" encoding="utf-8"?>
<svg xmlns="http://www.w3.org/2000/svg" fill="#000000" width="800px" height="800px" viewBox="0 0 24 24">
  <path d="M 6.017 6.452 C 3.28 6.452 0.942 8.13 -0.005 10.498 C 0.942 12.867 3.28 14.545 6.017 14.545 C 8.755 14.545 11.093 12.867 12.04 10.498 C 11.093 8.13 8.755 6.452 6.017 6.452 Z M 6.017 13.196 C 4.506 13.196 3.28 11.987 3.28 10.498 C 3.28 9.009 4.506 7.801 6.017 7.801 C 7.529 7.801 8.755 9.009 8.755 10.498 C 8.755 11.987 7.529 13.196 6.017 13.196 Z M 6.017 8.88 C 5.109 8.88 4.375 9.603 4.375 10.498 C 4.375 11.394 5.109 12.117 6.017 12.117 C 6.926 12.117 7.66 11.394 7.66 10.498 C 7.66 9.603 6.926 8.88 6.017 8.88 Z" style=""/>
  <path fill-rule="evenodd" clip-rule="evenodd" d="M 14.67 14.307 L 14.041 16.115 C 13.944 16.395 14.164 16.682 14.436 16.633 C 14.459 16.629 14.481 16.622 14.503 16.613 L 16.179 15.935 C 16.371 15.858 16.545 15.737 16.69 15.581 L 21.544 10.344 C 21.544 10.344 21.375 9.797 20.868 9.249 C 20.361 8.702 19.853 8.52 19.853 8.52 L 14.998 13.756 C 14.854 13.912 14.741 14.1 14.67 14.307 Z M 20.529 7.789 L 21.191 7.076 C 21.31 6.948 21.468 6.866 21.634 6.896 C 21.867 6.937 22.223 7.062 22.559 7.425 C 22.895 7.788 23.011 8.172 23.049 8.423 C 23.077 8.602 23.001 8.773 22.883 8.901 L 22.221 9.614 C 22.221 9.614 22.052 9.067 21.544 8.52 C 21.037 7.972 20.529 7.79 20.529 7.79 L 20.529 7.789 Z" fill="#000000" style=""/>
  <path style="fill: rgb(216, 216, 216); stroke: rgb(0, 0, 0);" d="M 10.228 18.419 L 16.826 5.318"/>
</svg>